HIERARCHY
ROOT Hips
{
  OFFSET 0 0 0
  CHANNELS 6 Xposition Yposition Zposition Zrotation Xrotation Yrotation
  JOINT Spine
  {
    OFFSET 0 10.1816 0.1315
    CHANNELS 3 Zrotation Xrotation Yrotation
    JOINT Spine1
    {
      OFFSET 0 10.0835 -1.0008
      CHANNELS 3 Zrotation Xrotation Yrotation
      JOINT Spine2
      {
        OFFSET 0 9.1 -1.3734
        CHANNELS 3 Zrotation Xrotation Yrotation
        JOINT Neck
        {
          OFFSET 0 16.6717 -2.5162
          CHANNELS 3 Zrotation Xrotation Yrotation
          JOINT Head
          {
            OFFSET 0 9.6179 1.685
            CHANNELS 3 Zrotation Xrotation Yrotation
            End Site
            {
              OFFSET 0 0 0
            }
          }
        }
        JOINT LeftShoulder
        {
          OFFSET 4.5704 10.946 -2.628
          CHANNELS 3 Zrotation Xrotation Yrotation
          JOINT LeftArm
          {
            OFFSET 10.5924 -0.5246 -2.2321
            CHANNELS 3 Zrotation Xrotation Yrotation
            JOINT LeftForeArm
            {
              OFFSET 27.8415 -0.0001 0
              CHANNELS 3 Zrotation Xrotation Yrotation
              JOINT LeftHand
              {
                OFFSET 28.3288 0 0
                CHANNELS 3 Zrotation Xrotation Yrotation
                End Site
                {
                  OFFSET 0 0 0
                }
              }
            }
          }
        }
        JOINT RightShoulder
        {
          OFFSET -4.57 10.9462 -2.628
          CHANNELS 3 Zrotation Xrotation Yrotation
          JOINT RightArm
          {
            OFFSET -10.5928 -0.5248 -2.2321
            CHANNELS 3 Zrotation Xrotation Yrotation
            JOINT RightForeArm
            {
              OFFSET -27.8415 0 0
              CHANNELS 3 Zrotation Xrotation Yrotation
              JOINT RightHand
              {
                OFFSET -28.3288 0 0.0001
                CHANNELS 3 Zrotation Xrotation Yrotation
                End Site
                {
                  OFFSET 0 0 0
                }
              }
            }
          }
        }
      }
    }
  }
  JOINT LeftUpLeg
  {
    OFFSET 8.2078 -6.7517 -1.5996
    CHANNELS 3 Zrotation Xrotation Yrotation
    JOINT LeftLeg
    {
      OFFSET 0 -44.3705 0.2846
      CHANNELS 3 Zrotation Xrotation Yrotation
      JOINT LeftFoot
      {
        OFFSET 0 -44.4279 -2.9822
        CHANNELS 3 Zrotation Xrotation Yrotation
        JOINT LeftToeBase
        {
          OFFSET 0 -8.7287 10.7106
          CHANNELS 3 Zrotation Xrotation Yrotation
          End Site
          {
            OFFSET 0 -0.0007 9.2781
          }
        }
      }
    }
  }
  JOINT RightUpLeg
  {
    OFFSET -8.2078 -6.7517 -1.5996
    CHANNELS 3 Zrotation Xrotation Yrotation
    JOINT RightLeg
    {
      OFFSET 0 -44.3705 0.2862
      CHANNELS 3 Zrotation Xrotation Yrotation
      JOINT RightFoot
      {
        OFFSET 0 -44.4277 -2.9838
        CHANNELS 3 Zrotation Xrotation Yrotation
        JOINT RightToeBase
        {
          OFFSET 0 -8.7287 10.7106
          CHANNELS 3 Zrotation Xrotation Yrotation
          End Site
          {
            OFFSET 0 -0.0007 9.2781
          }
        }
      }
    }
  }
}
MOTION
Frames:	14
Frame Time:	0.0333333
-0.314502 103.489 2.11448 -3.08292 -3.93832 -5.23833 2.85165 2.79607 1.59812 1.61338 0.990048 0.396327 1.61711 0.964612 0.418895 0.625251 5.12771 -0.230281 -0.168367 -7.39926 1.2575 -11.1385 4.53207 -16.0678 -71.2489 20.1566 -2.96725 -0.000183363 -1.99256e-06 -1.42301 -7.9367 -31.8363 -5.13837 14.1585 4.97184 14.1273 60.9474 30.5397 2.40079 1.17837e-05 3.29535e-06 6.57118 6.60956 -19.9102 1.57642 9.28295 -6.44853 16.0742 4.35209 10.9036 1.19531 -7.32847 1.66927 0.707646 -2.94239e-07 -4.86513 9.14351e-06 2.95722 1.05398 -10.7881 -3.27244 7.75369 -9.33994 3.18488 -4.2423 -1.34101 -2.30908e-06 -6.90341 -9.2066e-06 
-0.31068 103.493 2.11449 -3.08993 -3.93133 -5.23566 2.84542 2.78459 1.59928 1.61066 0.986881 0.396673 1.61442 0.961439 0.419233 0.618793 5.11667 -0.23039 -0.161737 -7.40432 1.24491 -11.1496 4.5344 -16.074 -71.2491 20.1479 -2.94383 -0.000211903 1.35369e-06 -1.41943 -7.93097 -31.8295 -5.13108 14.1665 4.97152 14.1065 60.9431 30.5668 2.38499 3.08013e-06 4.93108e-06 6.56546 6.63018 -19.9241 1.59252 9.28428 -6.44538 16.0681 4.35367 10.8814 1.20202 -7.33235 1.67917 0.708518 6.44975e-07 -4.86146 1.57917e-05 2.96375 1.07618 -10.796 -3.26397 7.69605 -9.34371 3.17808 -4.21331 -1.33402 -4.60729e-07 -6.89928 -4.54399e-06 
-0.307819 103.496 2.11592 -3.09636 -3.92118 -5.2352 2.8386 2.77733 1.60035 1.60801 0.984643 0.397014 1.61178 0.959194 0.419574 0.609699 5.10618 -0.228822 -0.161071 -7.41147 1.23874 -11.1629 4.53674 -16.0733 -71.2395 20.1398 -2.93177 -0.000188819 -1.02806e-05 -1.42169 -7.91997 -31.8203 -5.12542 14.175 4.97108 14.0836 60.9281 30.6047 2.38608 -4.28207e-06 2.14269e-06 6.55216 6.64424 -19.9487 1.61102 9.28691 -6.44798 16.0628 4.35586 10.8665 1.20382 -7.33416 1.68881 0.708969 8.36797e-06 -4.8647 1.24901e-05 2.97305 1.09367 -10.7963 -3.2607 7.64199 -9.34663 3.17374 -4.18646 -1.33113 1.18734e-07 -6.89022 1.52859e-05 
-0.305805 103.497 2.11769 -3.10331 -3.90792 -5.23888 2.83222 2.77487 1.59994 1.60579 0.983604 0.396784 1.60956 0.958152 0.419347 0.599344 5.09785 -0.224857 -0.167851 -7.42934 1.24419 -11.1777 4.53887 -16.0639 -71.221 20.1324 -2.93324 -0.000187703 -4.01666e-06 -1.42523 -7.89768 -31.8124 -5.12345 14.1798 4.97103 14.0729 60.9126 30.6245 2.3946 1.25624e-06 -2.43088e-06 6.54533 6.64278 -19.9673 1.61832 9.29367 -6.4613 16.0602 4.35862 10.8698 1.20287 -7.33571 1.68833 0.708905 2.05429e-07 -4.87101 4.16603e-06 2.98404 1.09559 -10.7867 -3.26273 7.61269 -9.34783 3.17349 -4.17148 -1.33027 -1.37429e-06 -6.89129 3.0691e-06 
-0.305069 103.494 2.11832 -3.11261 -3.89529 -5.24336 2.82695 2.77727 1.59652 1.60402 0.983962 0.395372 1.60779 0.958512 0.417933 0.59109 5.09476 -0.219383 -0.179289 -7.4599 1.25989 -11.1897 4.54044 -16.0535 -71.2 20.1219 -2.94587 -0.000175975 -5.87973e-06 -1.42376 -7.86464 -31.8184 -5.12647 14.1835 4.97231 14.0813 60.9015 30.6176 2.39954 1.29825e-05 3.25932e-06 6.54824 6.6353 -19.9761 1.61737 9.30863 -6.48894 16.062 4.36146 10.904 1.19806 -7.33853 1.66944 0.708274 2.50153e-06 -4.87642 -1.57763e-05 2.99551 1.07773 -10.7727 -3.26633 7.624 -9.34741 3.17605 -4.17628 -1.33189 -3.05301e-07 -6.90407 -6.19457e-06 
-0.306524 103.489 2.11773 -3.124 -3.88615 -5.24391 2.82239 2.7859 1.59026 1.60239 0.986285 0.392867 1.60614 0.96084 0.415426 0.587362 5.09754 -0.214168 -0.187727 -7.50236 1.27831 -11.1957 4.54138 -16.0512 -71.1799 20.1085 -2.96672 -0.000214759 -4.91383e-06 -1.41812 -7.82392 -31.8426 -5.13182 14.1917 4.97544 14.1038 60.8909 30.6017 2.39767 -1.42887e-05 3.58605e-06 6.55413 6.63956 -19.9837 1.62081 9.33005 -6.52622 16.0664 4.36494 10.9617 1.19168 -7.34192 1.64012 0.707354 2.38351e-06 -4.87958 7.47836e-06 3.00694 1.04825 -10.7611 -3.26826 7.66622 -9.34587 3.17858 -4.19707 -1.33599 -2.42096e-07 -6.91506 -7.76488e-06 
-0.310902 103.483 2.11711 -3.13585 -3.88004 -5.23909 2.81829 2.80203 1.58353 1.60073 0.991016 0.390228 1.60446 0.96558 0.412794 0.586521 5.10438 -0.210549 -0.186033 -7.55092 1.28968 -11.1979 4.54219 -16.0586 -71.1572 20.0966 -2.99328 -0.000175728 -6.28175e-06 -1.41688 -7.7803 -31.8718 -5.13511 14.2049 4.97972 14.1304 60.88 30.5933 2.3918 -6.389e-06 -2.84976e-06 6.5567 6.66228 -19.9974 1.63506 9.35303 -6.56362 16.0718 4.36974 11.0222 1.18446 -7.34422 1.61416 0.706538 1.26972e-06 -4.88234 -3.31152e-06 3.02161 1.02197 -10.7508 -3.27134 7.70922 -9.34363 3.17993 -4.2198 -1.34525 -3.84593e-07 -6.91691 4.58703e-06 
-0.317358 103.479 2.11792 -3.14768 -3.87658 -5.2314 2.81514 2.82424 1.57854 1.5992 0.99766 0.388356 1.60289 0.97223 0.410932 0.583932 5.11409 -0.208709 -0.174804 -7.59412 1.28802 -11.2033 4.54383 -16.0708 -71.124 20.0882 -3.02125 -0.000216861 9.65923e-06 -1.4268 -7.74325 -31.8911 -5.13649 14.2184 4.98377 14.1535 60.8786 30.5883 2.38436 2.39823e-06 4.77453e-06 6.55624 6.69414 -20.0147 1.65423 9.37472 -6.59316 16.078 4.37572 11.072 1.17357 -7.34554 1.59431 0.705877 -3.47235e-06 -4.88541 -4.1527e-06 3.04065 1.00853 -10.741 -3.2768 7.73364 -9.34184 3.18003 -4.23505 -1.35814 1.3384e-06 -6.91821 9.24462e-06 
-0.324044 103.476 2.12069 -3.15905 -3.87517 -5.22477 2.81211 2.84899 1.57477 1.59785 1.00498 0.387026 1.6015 0.979556 0.409617 0.576102 5.12722 -0.207473 -0.163656 -7.62083 1.2768 -11.2176 4.54709 -16.0831 -71.0751 20.0785 -3.04573 -0.000200934 -6.51815e-06 -1.44403 -7.72139 -31.9025 -5.14379 14.2299 4.98689 14.1691 60.8966 30.5749 2.3767 3.37137e-06 -2.15294e-06 6.55718 6.72321 -20.0248 1.6696 9.39432 -6.61336 16.0851 4.382 11.1107 1.15879 -7.34882 1.57601 0.705612 1.90492e-06 -4.88457 1.57635e-05 3.05873 1.00296 -10.7359 -3.28065 7.7489 -9.34059 3.1791 -4.24698 -1.36778 6.52093e-07 -6.92859 1.07456e-05 
-0.33056 103.473 2.12523 -3.16938 -3.87241 -5.222 2.80799 2.87424 1.56934 1.59648 1.01224 0.385039 1.60008 0.986816 0.407654 0.5635 5.14382 -0.204776 -0.164571 -7.63256 1.26879 -11.2409 4.55198 -16.0959 -71.0129 20.0608 -3.06671 -0.00020426 7.4121e-07 -1.45743 -7.70876 -31.923 -5.16524 14.2418 4.98956 14.1781 60.9313 30.5567 2.37081 -1.59445e-05 -1.27228e-06 6.56234 6.74615 -20.0234 1.68194 9.41325 -6.62915 16.0935 4.38655 11.1433 1.14308 -7.35665 1.55529 0.705839 -5.97718e-06 -4.87929 7.94359e-07 3.0739 0.996678 -10.7346 -3.28217 7.76427 -9.33974 3.1775 -4.25939 -1.37384 -1.31551e-07 -6.93988 2.15087e-05 
-0.33853 103.469 2.13073 -3.1782 -3.86534 -5.22397 2.80308 2.90144 1.56028 1.5949 1.01988 0.381574 1.59846 0.994458 0.404213 0.550057 5.16153 -0.199154 -0.180864 -7.64325 1.27661 -11.267 4.55756 -16.112 -70.9478 20.0353 -3.09054 -0.00021218 -3.92675e-06 -1.45998 -7.68364 -31.9639 -5.19826 14.2579 4.99281 14.1859 60.9694 30.5495 2.36817 -3.98225e-06 -7.43977e-06 6.56958 6.76429 -20.0202 1.70019 9.43488 -6.65037 16.1046 4.38789 11.1826 1.12975 -7.36634 1.53025 0.705987 8.13244e-07 -4.87674 -4.92797e-06 3.08947 0.97828 -10.7277 -3.28775 7.79459 -9.33791 3.1781 -4.27899 -1.38347 -1.57559e-06 -6.93858 1.63931e-06 
-0.349223 103.462 2.13548 -3.18569 -3.85273 -5.23002 2.79831 2.93286 1.54893 1.59326 1.02876 0.377144 1.59676 1.00334 0.399808 0.541142 5.1776 -0.191381 -0.201364 -7.66833 1.30159 -11.2877 4.5624 -16.1322 -70.8933 20.0133 -3.12377 -0.00020342 -2.1614e-06 -1.4554 -7.62642 -32.0186 -5.22834 14.28 4.99756 14.1999 60.9998 30.5587 2.36643 1.39971e-05 1.06686e-05 6.57335 6.7732 -20.0265 1.72375 9.46121 -6.68663 16.1186 4.38732 11.2418 1.11953 -7.37197 1.49995 0.705232 5.8982e-07 -4.88134 6.62606e-06 3.10794 0.939619 -10.708 -3.30134 7.85154 -9.33413 3.18253 -4.31078 -1.40088 9.66855e-07 -6.93021 -1.57014e-06 
-0.3618 103.455 2.13868 -3.19418 -3.83378 -5.23915 2.79488 2.96786 1.53918 1.59179 1.03882 0.373287 1.59523 1.01342 0.395967 0.540446 5.19237 -0.184576 -0.208507 -7.711 1.33062 -11.298 4.56542 -16.1529 -70.8563 20.01 -3.16645 -0.000212612 -7.88837e-06 -1.45336 -7.54209 -32.0671 -5.24253 14.3063 5.00398 14.2262 61.0252 30.5705 2.35871 -2.06e-05 5.70152e-06 6.56991 6.76708 -20.0366 1.73574 9.49105 -6.73306 16.1343 4.38729 11.3069 1.11047 -7.37283 1.4717 0.704014 5.19265e-06 -4.88896 1.68188e-06 3.12879 0.89168 -10.6842 -3.31478 7.91196 -9.33031 3.18552 -4.34326 -1.41673 6.40442e-07 -6.92811 1.385e-05 
-0.373977 103.451 2.142 -3.20593 -3.81001 -5.25133 2.79363 3.0023 1.53496 1.5907 1.04876 0.371601 1.59408 1.02337 0.394292 0.546599 5.20939 -0.182341 -0.195436 -7.75809 1.34397 -11.2998 4.5667 -16.1697 -70.8303 20.0293 -3.21335 -0.000179168 -1.22535e-05 -1.45931 -7.46067 -32.0921 -5.2406 14.33 5.01112 14.2667 61.0598 30.569 2.33559 -3.97027e-05 -6.72088e-07 6.56174 6.75429 -20.0371 1.72608 9.5191 -6.77114 16.1487 4.39037 11.346 1.10276 -7.37341 1.45626 0.703529 -8.87049e-07 -4.89316 -5.82419e-06 3.14779 0.86249 -10.6767 -3.31296 7.92729 -9.33146 3.17854 -4.35379 -1.40813 -2.97513e-06 -6.93352 -1.84901e-05 
